<svg width="32" height="32" viewBox="0 0 32 32" fill="none" xmlns="http://www.w3.org/2000/svg">
<g id="cable_32dp_1F1F1F_FILL0_wght400_GRAD0_opsz40 1">
<path id="Vector" d="M6.44433 28C6.12589 28 5.86111 27.8944 5.65 27.6833C5.43889 27.4722 5.33333 27.2074 5.33333 26.889V25.3333H4V20.2223C4 19.9037 4.10556 19.6388 4.31667 19.4277C4.52778 19.2166 4.79256 19.111 5.111 19.111H6.66667V9.111C6.66667 7.67411 7.18889 6.463 8.23333 5.47767C9.27778 4.49256 10.5333 4 12 4C13.4222 4 14.6297 4.49633 15.6223 5.489C16.6148 6.48144 17.111 7.68878 17.111 9.111V22.889C17.111 23.6963 17.3907 24.3797 17.95 24.939C18.5093 25.4981 19.1927 25.7777 20 25.7777C20.8518 25.7777 21.5832 25.5018 22.1943 24.95C22.8054 24.3982 23.111 23.7112 23.111 22.889V12.889H21.5557C21.237 12.889 20.9721 12.7834 20.761 12.5723C20.5499 12.3612 20.4443 12.0963 20.4443 11.7777V6.66667H21.7777V5.111C21.7777 4.79256 21.8832 4.52778 22.0943 4.31667C22.3054 4.10556 22.5703 4 22.889 4H25.5557C25.8741 4 26.1389 4.10556 26.35 4.31667C26.5611 4.52778 26.6667 4.79256 26.6667 5.111V6.66667H28V11.7777C28 12.0963 27.8944 12.3612 27.6833 12.5723C27.4722 12.7834 27.2074 12.889 26.889 12.889H25.3333V22.889C25.3333 24.3259 24.8111 25.537 23.7667 26.5223C22.7222 27.5074 21.4667 28 20 28C18.5778 28 17.3703 27.5037 16.3777 26.511C15.3852 25.5186 14.889 24.3112 14.889 22.889V9.111C14.889 8.30367 14.6093 7.62033 14.05 7.061C13.4907 6.50189 12.8073 6.22233 12 6.22233C11.1482 6.22233 10.4168 6.49822 9.80567 7.05C9.19456 7.60178 8.889 8.28878 8.889 9.111V19.111H10.4443C10.763 19.111 11.0279 19.2166 11.239 19.4277C11.4501 19.6388 11.5557 19.9037 11.5557 20.2223V25.3333H10.2223V26.889C10.2223 27.2074 10.1168 27.4722 9.90567 27.6833C9.69456 27.8944 9.42967 28 9.111 28H6.44433Z" fill="#E24328" fill-opacity="0.8"/>
</g>
</svg>
