<svg width="32" height="32" viewBox="0 0 32 32" fill="none" xmlns="http://www.w3.org/2000/svg">
<g id="storage_32dp_1F1F1F_FILL0_wght400_GRAD0_opsz40 1">
<path id="Subtract" fill-rule="evenodd" clip-rule="evenodd" d="M10.6577 25.0667L12.5161 20H4V25.0667H10.6577ZM13.054 18.5333H4V13.4667H14.9125L13.054 18.5333ZM16.7767 20L14.9183 25.0667H28V20H16.7767ZM17.3146 18.5333L19.1731 13.4667H28V18.5333H17.3146ZM19.711 12H28V6.93335H21.5694L19.711 12ZM17.3088 6.93335H4V12H15.4504L17.3088 6.93335ZM8.711 23.7777H6.22233V21.289H8.711V23.7777ZM8.711 10.711H6.22233V8.22235H8.711V10.711ZM8.711 17.2443H6.22233V14.7557H8.711V17.2443Z" fill="#E24328" fill-opacity="0.8"/>
</g>
</svg>
