<svg width="15" height="12" viewBox="0 0 15 12" fill="none" xmlns="http://www.w3.org/2000/svg">
<path fill-rule="evenodd" clip-rule="evenodd" d="M7.41261 0.814866C7.41261 0.456903 7.70786 0.166718 8.07207 0.166718H14.0072C14.3714 0.166718 14.6667 0.456903 14.6667 0.814866C14.6667 1.17283 14.3714 1.46301 14.0072 1.46301H8.07207C7.70786 1.46301 7.41261 1.17283 7.41261 0.814866ZM4.58162 2.301C4.83916 2.55412 4.83916 2.9645 4.58162 3.21762L2.41009 5.3519H14.0072C14.3714 5.3519 14.6667 5.64209 14.6667 6.00005C14.6667 6.35801 14.3714 6.6482 14.0072 6.6482H2.41009L4.58162 8.78248C4.83916 9.0356 4.83916 9.44598 4.58162 9.6991C4.32408 9.95222 3.90654 9.95222 3.649 9.6991L0.934591 7.03125C0.355137 6.46173 0.355136 5.53837 0.93459 4.96885L3.649 2.301C3.90654 2.04788 4.32408 2.04788 4.58162 2.301ZM7.41261 11.1852C7.41261 10.8273 7.70786 10.5371 8.07207 10.5371H14.0072C14.3714 10.5371 14.6667 10.8273 14.6667 11.1852C14.6667 11.5432 14.3714 11.8334 14.0072 11.8334H8.07207C7.70786 11.8334 7.41261 11.5432 7.41261 11.1852Z" fill="#606164"/>
</svg>
