<svg width="98" height="85" viewBox="0 0 98 85" fill="none" xmlns="http://www.w3.org/2000/svg">
<path d="M97.0646 6.53313L86.615 0.499878L64.2923 13.3875V13.7775L48.5323 4.67846L32.7723 13.7775V13.3875L10.4496 0.499878L0 6.53313V39.9776V56.2195L48.5323 84.2393L97.0646 56.2195V39.9776V6.53313ZM70.6363 17.0461L86.6182 7.8203L90.727 10.1918V28.9922L70.6394 17.3949V17.0493L70.6363 17.0461ZM6.34395 10.1918L10.4528 7.8203L26.4347 17.0461V17.3917L6.34712 28.989V10.1886L6.34395 10.1918ZM61.2329 69.5826L48.5355 76.9126L35.8381 69.5826V57.4971L48.5355 50.1672L61.2329 57.4971V69.5826ZM90.7238 52.5577L77.982 59.9161V45.0946L48.5355 28.0949L19.0889 45.0946V59.9161L6.34395 52.5577V36.3601L48.5355 12.002L90.727 36.3601V52.5577H90.7238Z" fill="#E2401B"/>
</svg>
