<svg width="330" height="33" xmlns="http://www.w3.org/2000/svg" fill="none">

 <g>
  <title>Layer 1</title>
  <path id="svg_1" fill="#E2401B" d="m25.3373,10.8586c-2.053,0 -3.7774,0.7719 -5.1263,2.2932c-1.3489,1.5213 -2.0342,3.5294 -2.0342,5.9763c0,2.4469 0.7073,4.3333 2.1031,5.7681c1.3958,1.4348 3.2141,2.1618 5.4079,2.1618c1.4741,0 2.7729,-0.2978 3.862,-0.8871c1.0891,-0.5893 1.8433,-1.1978 2.2408,-1.8064l0.0125,-0.0192l-1.7369,-3.334l-0.0126,-0.0224l-0.2347,0l-0.0125,0.0192c-0.3536,0.6181 -0.9232,1.1754 -1.6869,1.6558c-0.7636,0.4804 -1.5804,0.727 -2.4348,0.727c-0.9389,0 -1.7463,-0.317 -2.4004,-0.9416c-0.6447,-0.6149 -0.9765,-1.3964 -0.9858,-2.3188l10.2213,0l0.0281,-1.1433c0,-2.3925 -0.6916,-4.3654 -2.0592,-5.8642c-1.3677,-1.5021 -3.1015,-2.2612 -5.1545,-2.2612l0.0031,-0.0032zm3.1922,6.4311l-6.1653,0c0.1471,-0.6758 0.4757,-1.3067 0.9796,-1.8832c0.5101,-0.5829 1.2174,-0.8807 2.0999,-0.8807c0.8826,0 1.6086,0.3074 2.1563,0.9095c0.5352,0.5925 0.8482,1.2171 0.9295,1.8512l0,0.0032z"/>
  <path id="svg_2" fill="#E2401B" d="m44.8129,12.7836c-0.3974,-0.5797 -0.9639,-1.0505 -1.6837,-1.3964c-0.7292,-0.3491 -1.5022,-0.5285 -2.2972,-0.5285c-2.0718,0 -3.7586,0.7847 -5.0199,2.3316c-1.2581,1.547 -1.8965,3.5134 -1.8965,5.8514c0,2.338 0.6103,4.2757 1.8152,5.7681c1.208,1.4925 2.8855,2.2516 4.9917,2.2516c1.0453,0 1.9654,-0.221 2.7416,-0.6534c0.7698,-0.4292 1.3676,-1.0089 1.7838,-1.7199l0.0251,0l0.3724,2.0114l0.0063,0.032l3.0106,0l0,-20.56475l-3.8556,0l0,6.61685l0.0062,0zm-0.8669,3.0266c0.6666,0.8551 1.0015,1.9408 1.0015,3.2315c0,1.2907 -0.3411,2.3284 -1.014,3.1355c-0.6729,0.8071 -1.5711,1.2138 -2.6664,1.2138c-1.0954,0 -1.9842,-0.4163 -2.5851,-1.2394c-0.604,-0.8263 -0.9107,-1.8736 -0.9107,-3.1099c0,-1.1466 0.3161,-2.197 0.9357,-3.1226c0.6197,-0.9224 1.4803,-1.39 2.5569,-1.39c1.0766,0 2.0155,0.4323 2.679,1.2811l0.0031,0z"/>
  <path id="svg_3" fill="#E2401B" d="m58.8784,10.8594c-1.133,0 -2.1031,0.2338 -2.8793,0.695c-0.7667,0.458 -1.3332,1.0217 -1.6775,1.6782l-0.0219,0l-0.2441,-2.0433l-3.1484,0l0,20.6448l3.8557,0l0,-6.8186l0.047,0c0.3786,0.5829 0.942,1.0761 1.6743,1.4572c0.7386,0.3875 1.5335,0.5829 2.366,0.5829c1.9623,0 3.5427,-0.7558 4.6975,-2.2515c1.1517,-1.4925 1.7339,-3.4301 1.7339,-5.7649c0,-2.3348 -0.5978,-4.3013 -1.7745,-5.8482c-1.1799,-1.5501 -2.7385,-2.3348 -4.6287,-2.3348l0,0.0032zm2.5506,8.183c0,1.2554 -0.3161,2.3059 -0.9358,3.1226c-0.6196,0.8135 -1.4333,1.2267 -2.4223,1.2267c-0.9889,0 -1.8652,-0.3908 -2.4912,-1.1594c-0.629,-0.7719 -0.9482,-1.8448 -0.9482,-3.1899c0,-1.3452 0.3098,-2.495 0.9232,-3.302c0.6103,-0.8039 1.4584,-1.2139 2.5193,-1.2139c1.061,0 1.8497,0.4388 2.4505,1.3067c0.6041,0.8712 0.9108,1.9505 0.9108,3.206l-0.0063,0.0032z"/>
  <path id="svg_4" fill="#E2401B" d="m77.3696,12.4277c-1.1517,-1.0409 -2.6539,-1.5693 -4.4628,-1.5693c-1.2988,0 -2.5068,0.2818 -3.5897,0.8391c-1.0797,0.5573 -1.981,1.358 -2.6789,2.3764l-0.0157,0.0225l1.8872,3.1899l0.0125,0.0192l0.241,0l0.0094,-0.0224c0.4475,-0.8904 1.0453,-1.6014 1.7713,-2.117c0.7261,-0.5157 1.5116,-0.7783 2.3316,-0.7783c0.773,0 1.3676,0.1473 1.762,0.4324c0.3912,0.285 0.5883,0.6629 0.5883,1.1241c0,0.41 -0.2378,0.7174 -0.7292,0.9416c-0.4944,0.2274 -1.6211,0.5349 -3.3455,0.9192c-1.6838,0.3683 -2.9074,0.9672 -3.6398,1.7871c-0.7323,0.8199 -1.1047,1.8704 -1.1047,3.1227c0,1.3483 0.4068,2.4213 1.2049,3.1867c0.798,0.7655 1.9935,1.1562 3.549,1.1562c2.0749,0 3.5677,-0.7975 4.4315,-2.3732l0.0282,0l0.388,2.0433l3.0984,0l0,-9.8676c0,-1.8992 -0.5853,-3.3885 -1.7401,-4.4326l0.0031,0zm-3.1171,10.3641c-0.6697,0.4868 -1.4834,0.7366 -2.4192,0.7366c-1.0578,0 -1.571,-0.3843 -1.571,-1.1722c0,-0.3875 0.1502,-0.7174 0.4412,-0.9736c0.2974,-0.2595 0.8419,-0.4836 1.6212,-0.6662c1.7275,-0.3971 2.6852,-0.8071 2.9293,-1.2459l0,1.5918c0,0.663 -0.338,1.2427 -1.0015,1.7295z"/>
  <path id="svg_5" fill="#E2401B" d="m89.1007,10.8584c-0.9357,0 -1.8058,0.2114 -2.5819,0.6245c-0.7699,0.4132 -1.3958,0.9993 -1.8653,1.7487l-0.025,0l-0.2441,-2.0433l-3.1484,0l0,15.5364l3.8557,0l0,-7.8499c0,-1.2747 0.3004,-2.3284 0.895,-3.1354c0.5915,-0.8039 1.4397,-1.2139 2.5194,-1.2139c1.6743,0 2.5225,1.0089 2.5225,2.9978l0,9.2046l3.8557,0l0,-10.4473c0,-1.5661 -0.5039,-2.876 -1.496,-3.8913c-0.9921,-1.0153 -2.4349,-1.5309 -4.2907,-1.5309l0.0031,0z"/>
  <path id="svg_6" fill="#E2401B" d="m107.193,12.7836c-0.398,-0.5797 -0.964,-1.0505 -1.684,-1.3964c-0.729,-0.3491 -1.502,-0.5285 -2.297,-0.5285c-2.072,0 -3.7587,0.7847 -5.0199,2.3316c-1.2581,1.547 -1.8965,3.5134 -1.8965,5.8514c0,2.338 0.6102,4.2757 1.8151,5.7681c1.2081,1.4925 2.8853,2.2516 4.9913,2.2516c1.046,0 1.966,-0.221 2.742,-0.6534c0.767,-0.4292 1.368,-1.0089 1.784,-1.7199l0.025,0l0.372,2.0114l0.007,0.032l3.01,0l0,-20.56475l-3.855,0l0,6.61685l0.006,0zm-0.867,3.0266c0.667,0.8551 1.001,1.9408 1.001,3.2315c0,1.2907 -0.341,2.3284 -1.017,3.1355c-0.673,0.8071 -1.571,1.2138 -2.666,1.2138c-1.095,0 -1.984,-0.4163 -2.585,-1.2394c-0.604,-0.8263 -0.911,-1.8736 -0.911,-3.1099c0,-1.1466 0.316,-2.197 0.936,-3.1226c0.62,-0.9224 1.48,-1.39 2.557,-1.39c1.076,0 2.015,0.4323 2.679,1.2811l0.006,0z"/>
  <path id="svg_7" fill="#E2401B" d="m123.7,12.4277c-1.151,-1.0409 -2.653,-1.5693 -4.462,-1.5693c-1.299,0 -2.507,0.2818 -3.59,0.8391c-1.08,0.5573 -1.981,1.358 -2.679,2.3764l-0.016,0.0225l1.888,3.1899l0.012,0.0192l0.241,0l0.009,-0.0224c0.448,-0.8872 1.046,-1.6014 1.772,-2.117c0.726,-0.5157 1.511,-0.7783 2.334,-0.7783c0.773,0 1.368,0.1473 1.762,0.4324c0.392,0.285 0.589,0.6629 0.589,1.1241c0,0.41 -0.238,0.7174 -0.729,0.9416c-0.495,0.2274 -1.622,0.5349 -3.346,0.9192c-1.684,0.3683 -2.907,0.9672 -3.64,1.7871c-0.732,0.8199 -1.104,1.8704 -1.104,3.1227c0,1.3483 0.406,2.4213 1.204,3.1867c0.798,0.7655 1.994,1.1562 3.549,1.1562c2.075,0 3.568,-0.7975 4.432,-2.3732l0.028,0l0.388,2.0433l3.099,0l0,-9.8676c0,-1.8992 -0.586,-3.3885 -1.741,-4.4326zm-3.117,10.3641c-0.669,0.4868 -1.483,0.7366 -2.419,0.7366c-1.058,0 -1.571,-0.3843 -1.571,-1.1722c0,-0.3907 0.15,-0.7174 0.441,-0.9736c0.298,-0.2595 0.842,-0.4836 1.622,-0.6662c1.727,-0.3971 2.685,-0.8071 2.929,-1.2459l0,1.5918c0,0.663 -0.338,1.2427 -1.005,1.7295l0.003,0z"/>
  <path id="svg_8" fill="#E2401B" d="m13.9543,20.6106c-0.338,-0.6278 -0.5978,-1.2107 -0.7887,-1.6719c0.8794,-0.3458 1.6211,-0.98 2.2971,-1.659c1.0109,-1.0152 1.5148,-2.4468 1.5148,-4.3012c0,-2.1459 -0.6854,-3.81448 -2.0593,-5.00269c-1.3708,-1.18821 -3.0201,-1.78392 -4.94481,-1.78392l-8.80673,0l0,20.48461l4.2907,0l0,-7.3438l1.63053,0l0.99521,-0.0256c0.37243,0.9191 1.19551,2.9401 1.67435,4.013l4.19995,-2.7063l-0.0031,-0.0032zm-8.49694,-10.3224l3.94644,0c1.981,0 2.9731,0.8199 2.9731,2.4565c0,1.7551 -1.1047,2.6326 -3.31736,2.6326l-3.60218,0l0,-5.0891z"/>
  <path id="svg_9" fill="#E2401B" d="m18.3856,25.2141l-1.1236,-0.8135l-4.6474,3.0811l1.6274,0.6469l2.8354,-0.0064l2.0562,-1.4989l-0.748,-1.4092z"/>
  <path id="svg_10" fill="#E2401B" d="m14.6682,21.7915l-4.3095,2.7768l1.2112,1.9408l4.5848,-2.9561l-1.4865,-1.7615z"/>
  <path id="svg_11" fill="#79797D" d="m141.77,27.2974c-1.302,0 -2.44,-0.3257 -3.412,-0.9771c-0.972,-0.6608 -1.728,-1.5718 -2.266,-2.7329c-0.538,-1.1706 -0.807,-2.5252 -0.807,-4.064c0,-1.5387 0.269,-2.8886 0.807,-4.0498c0.548,-1.1705 1.308,-2.0815 2.28,-2.7329c0.972,-0.6608 2.1,-0.9912 3.384,-0.9912c0.973,0 1.86,0.203 2.662,0.6089c0.803,0.4059 1.445,1.0242 1.926,1.855l0.028,0l0,-8.31203l2.988,0l0,21.09863l-2.931,0l0,-2.2798l-0.028,0c-0.501,0.8685 -1.157,1.5152 -1.968,1.94c-0.803,0.4248 -1.69,0.6372 -2.663,0.6372zm0.609,-2.5772c1.275,0 2.29,-0.472 3.045,-1.416c0.764,-0.9535 1.147,-2.2137 1.147,-3.7808c0,-1.5765 -0.383,-2.8367 -1.147,-3.7807c-0.755,-0.9535 -1.77,-1.4302 -3.045,-1.4302c-1.208,0 -2.19,0.4484 -2.945,1.3452c-0.746,0.8874 -1.119,2.176 -1.119,3.8657c0,1.6898 0.373,2.9784 1.119,3.8658c0.755,0.8873 1.737,1.331 2.945,1.331zm16.461,2.6196c-1.425,0 -2.676,-0.3304 -3.752,-0.9912c-1.076,-0.6608 -1.917,-1.5765 -2.521,-2.747c-0.595,-1.1706 -0.892,-2.5205 -0.892,-4.0498c0,-1.5482 0.297,-2.9076 0.892,-4.0782c0.604,-1.18 1.445,-2.1004 2.521,-2.7612c1.076,-0.6702 2.327,-1.0054 3.752,-1.0054c1.426,0 2.672,0.3352 3.738,1.0054c1.077,0.6608 1.912,1.5812 2.507,2.7612c0.604,1.1706 0.906,2.53 0.906,4.0782c0,1.5293 -0.302,2.8792 -0.906,4.0498c-0.595,1.1705 -1.43,2.0862 -2.507,2.747c-1.066,0.6608 -2.312,0.9912 -3.738,0.9912zm0,-2.5771c1.284,0 2.294,-0.472 3.03,-1.416c0.737,-0.944 1.105,-2.209 1.105,-3.7949c0,-1.6049 -0.373,-2.884 -1.119,-3.8374c-0.736,-0.9535 -1.741,-1.4302 -3.016,-1.4302c-1.274,0 -2.284,0.4767 -3.03,1.4302c-0.736,0.944 -1.105,2.2231 -1.105,3.8374c0,1.5953 0.369,2.865 1.105,3.809c0.736,0.9346 1.746,1.4019 3.03,1.4019zm15.88,2.5771c-1.425,0 -2.676,-0.3304 -3.752,-0.9912c-1.067,-0.6608 -1.898,-1.5765 -2.492,-2.747c-0.595,-1.1801 -0.892,-2.53 -0.892,-4.0498c0,-1.5388 0.297,-2.8982 0.892,-4.0782c0.604,-1.18 1.439,-2.1004 2.506,-2.7612c1.067,-0.6702 2.313,-1.0054 3.738,-1.0054c1.19,0 2.252,0.236 3.186,0.708c0.944,0.4626 1.709,1.1045 2.294,1.9258c0.586,0.8213 0.94,1.7606 1.062,2.8179l-2.973,0c-0.151,-0.8402 -0.529,-1.5293 -1.133,-2.0674c-0.604,-0.5381 -1.411,-0.8071 -2.422,-0.8071c-1.293,0 -2.303,0.4767 -3.03,1.4302c-0.727,0.9534 -1.09,2.2325 -1.09,3.8374c0,1.5859 0.363,2.8509 1.09,3.7949c0.727,0.944 1.737,1.416 3.03,1.416c1.029,0 1.822,-0.2596 2.379,-0.7788c0.557,-0.5287 0.935,-1.2319 1.133,-2.1099l3.016,0c-0.113,1.0384 -0.462,1.973 -1.048,2.8037c-0.585,0.8213 -1.349,1.4727 -2.293,1.9541c-0.944,0.472 -2.011,0.708 -3.201,0.708zm14.181,-0.0424c-1.019,0 -1.94,-0.2219 -2.761,-0.6656c-0.812,-0.4531 -1.458,-1.1186 -1.94,-1.9965c-0.472,-0.878 -0.708,-1.9683 -0.708,-3.271l0,-9.3174l2.988,0l0,8.9492c0,1.1989 0.288,2.1051 0.864,2.7187c0.576,0.6042 1.383,0.9063 2.421,0.9063c1.01,0 1.86,-0.3115 2.549,-0.9346c0.699,-0.6325 1.048,-1.6426 1.048,-3.0303l0,-8.6093l2.988,0l0,14.9531l-2.932,0l0,-2.2515c-1.019,1.6993 -2.525,2.5489 -4.517,2.5489zm10.5,-0.2974l0,-14.9531l2.903,0l0,2.5063c0.462,-0.9251 1.09,-1.6237 1.883,-2.0957c0.793,-0.472 1.652,-0.708 2.577,-0.708c1.02,0 1.912,0.2596 2.676,0.7788c0.774,0.5192 1.317,1.18 1.629,1.9824c0.406,-0.8118 1.019,-1.4726 1.84,-1.9824c0.831,-0.5192 1.799,-0.7788 2.903,-0.7788c0.925,0 1.766,0.203 2.521,0.6089c0.755,0.4059 1.354,1.0101 1.798,1.8125c0.444,0.793 0.666,1.7889 0.666,2.9878l0,9.8413l-3.002,0l0,-9.5864c0,-1.0668 -0.298,-1.8408 -0.892,-2.3223c-0.595,-0.4814 -1.298,-0.7222 -2.11,-0.7222c-1.001,0 -1.789,0.3116 -2.365,0.9346c-0.576,0.6136 -0.864,1.3971 -0.864,2.3506l0,9.3457l-2.945,0l0,-9.7847c0,-0.859 -0.279,-1.5481 -0.835,-2.0674c-0.548,-0.5192 -1.247,-0.7788 -2.096,-0.7788c-0.869,0 -1.638,0.3068 -2.308,0.9205c-0.661,0.6136 -0.992,1.5104 -0.992,2.6904l0,9.02l-2.987,0zm30.847,0.3398c-1.482,0 -2.756,-0.3351 -3.823,-1.0053c-1.057,-0.6703 -1.874,-1.5907 -2.45,-2.7613c-0.566,-1.18 -0.849,-2.5205 -0.849,-4.0214c0,-1.5199 0.297,-2.8698 0.892,-4.0498c0.594,-1.1801 1.416,-2.1052 2.464,-2.7754c1.047,-0.6797 2.251,-1.0196 3.61,-1.0196c1.416,0 2.644,0.3304 3.682,0.9912c1.048,0.6608 1.86,1.5813 2.436,2.7613c0.575,1.1705 0.863,2.5252 0.863,4.0639l0,0.8072l-11.002,0c0.057,1.3499 0.444,2.4402 1.161,3.271c0.727,0.8307 1.747,1.2461 3.059,1.2461c0.981,0 1.789,-0.2219 2.421,-0.6656c0.633,-0.4437 1.053,-1.0195 1.26,-1.7275l2.875,0c-0.18,0.9629 -0.581,1.8125 -1.204,2.5488c-0.613,0.7363 -1.387,1.3122 -2.322,1.7276c-0.925,0.4059 -1.949,0.6088 -3.073,0.6088zm-4.149,-9.2749l8.057,0c-0.122,-1.1894 -0.542,-2.1287 -1.26,-2.8178c-0.717,-0.6986 -1.642,-1.0479 -2.775,-1.0479c-1.133,0 -2.058,0.3493 -2.776,1.0479c-0.708,0.6891 -1.123,1.6284 -1.246,2.8178zm16.234,0.3257l0,8.6094l-2.987,0l0,-14.9531l2.931,0l0,2.2514c1.019,-1.6992 2.525,-2.5488 4.517,-2.5488c1.029,0 1.949,0.2266 2.761,0.6797c0.821,0.4437 1.468,1.1045 1.94,1.9824c0.472,0.878 0.708,1.9683 0.708,3.271l0,9.3174l-2.988,0l0,-8.9492c0,-1.1989 -0.288,-2.1004 -0.863,-2.7046c-0.576,-0.6136 -1.379,-0.9204 -2.408,-0.9204c-1.019,0 -1.878,0.3162 -2.577,0.9487c-0.689,0.6231 -1.034,1.6284 -1.034,3.0161zm20.129,-6.3437l0,2.4638l-3.031,0l0,8.5386c0,0.557 0.114,0.944 0.34,1.1611c0.227,0.2172 0.638,0.3257 1.232,0.3257l1.459,0l0,2.4639l-1.884,0c-2.765,0 -4.148,-1.1895 -4.148,-3.5684l0,-8.9209l-2.634,0l0,-2.4638l2.634,0l0,-4.07815l3.001,0l0,4.07815l3.031,0zm6.973,15.1938c-1.491,0 -2.728,-0.3776 -3.71,-1.1328c-0.981,-0.7646 -1.472,-1.8927 -1.472,-3.3843c0,-1.1328 0.278,-2.0013 0.835,-2.6054c0.566,-0.6136 1.298,-1.0526 2.195,-1.3169c0.906,-0.2644 1.864,-0.4579 2.874,-0.5806c0.935,-0.1133 1.676,-0.2077 2.224,-0.2832c0.547,-0.0755 0.934,-0.1888 1.161,-0.3398c0.236,-0.1511 0.354,-0.4107 0.354,-0.7789l0,-0.1274c0,-0.7269 -0.265,-1.3216 -0.793,-1.7842c-0.529,-0.472 -1.27,-0.708 -2.223,-0.708c-0.954,0 -1.733,0.2313 -2.337,0.6939c-0.604,0.4531 -0.934,1.0242 -0.991,1.7133l-2.931,0c0.066,-1.4254 0.665,-2.5913 1.798,-3.4975c1.133,-0.9063 2.634,-1.3594 4.503,-1.3594c1.841,0 3.29,0.4531 4.347,1.3594c1.058,0.9062 1.586,2.1193 1.586,3.6391l0,10.252l-2.945,0l0,-2.124l-0.057,0c-0.311,0.6041 -0.807,1.1517 -1.487,1.6426c-0.67,0.4814 -1.647,0.7221 -2.931,0.7221zm0.609,-2.4072c1.322,0 2.294,-0.3398 2.917,-1.0195c0.633,-0.6892 0.949,-1.4916 0.949,-2.4073l0,-1.7558c-0.198,0.1605 -0.647,0.3068 -1.345,0.4389c-0.699,0.1228 -1.445,0.2408 -2.238,0.354c-0.821,0.1228 -1.543,0.3541 -2.166,0.6939c-0.623,0.3398 -0.935,0.8874 -0.935,1.6426c0,0.6419 0.25,1.1469 0.751,1.5151c0.51,0.3587 1.199,0.5381 2.067,0.5381zm17.07,-12.7866l0,2.4638l-3.03,0l0,8.5386c0,0.557 0.113,0.944 0.339,1.1611c0.227,0.2172 0.638,0.3257 1.232,0.3257l1.459,0l0,2.4639l-1.884,0c-2.765,0 -4.148,-1.1895 -4.148,-3.5684l0,-8.9209l-2.634,0l0,-2.4638l2.634,0l0,-4.07815l3.002,0l0,4.07815l3.03,0zm2.046,14.9531l0,-14.9531l2.987,0l0,14.9531l-2.987,0zm1.486,-17.53027c-0.528,0 -0.977,-0.17465 -1.345,-0.52393c-0.359,-0.35872 -0.538,-0.79297 -0.538,-1.30273c0,-0.51921 0.179,-0.95345 0.538,-1.30274c0.368,-0.35872 0.817,-0.53808 1.345,-0.53808c0.529,0 0.977,0.17936 1.346,0.53808c0.368,0.34929 0.552,0.78353 0.552,1.30274c0,0.50976 -0.184,0.94401 -0.552,1.30273c-0.369,0.34928 -0.817,0.52393 -1.346,0.52393zm10.995,17.87007c-1.425,0 -2.676,-0.3304 -3.752,-0.9912c-1.076,-0.6608 -1.916,-1.5765 -2.521,-2.747c-0.594,-1.1706 -0.892,-2.5205 -0.892,-4.0498c0,-1.5482 0.298,-2.9076 0.892,-4.0782c0.605,-1.18 1.445,-2.1004 2.521,-2.7612c1.076,-0.6702 2.327,-1.0054 3.752,-1.0054c1.426,0 2.672,0.3352 3.739,1.0054c1.076,0.6608 1.911,1.5812 2.506,2.7612c0.604,1.1706 0.906,2.53 0.906,4.0782c0,1.5293 -0.302,2.8792 -0.906,4.0498c-0.595,1.1705 -1.43,2.0862 -2.506,2.747c-1.067,0.6608 -2.313,0.9912 -3.739,0.9912zm0,-2.5771c1.284,0 2.294,-0.472 3.031,-1.416c0.736,-0.944 1.104,-2.209 1.104,-3.7949c0,-1.6049 -0.373,-2.884 -1.119,-3.8374c-0.736,-0.9535 -1.741,-1.4302 -3.016,-1.4302c-1.274,0 -2.284,0.4767 -3.03,1.4302c-0.736,0.944 -1.104,2.2231 -1.104,3.8374c0,1.5953 0.368,2.865 1.104,3.809c0.736,0.9346 1.746,1.4019 3.03,1.4019zm12.468,-6.3721l0,8.6094l-2.988,0l0,-14.9531l2.931,0l0,2.2514c1.02,-1.6992 2.526,-2.5488 4.517,-2.5488c1.029,0 1.95,0.2266 2.762,0.6797c0.821,0.4437 1.468,1.1045 1.94,1.9824c0.472,0.878 0.708,1.9683 0.708,3.271l0,9.3174l-2.988,0l0,-8.9492c0,-1.1989 -0.288,-2.1004 -0.864,-2.7046c-0.576,-0.6136 -1.378,-0.9204 -2.407,-0.9204c-1.02,0 -1.879,0.3162 -2.577,0.9487c-0.689,0.6231 -1.034,1.6284 -1.034,3.0161z"/>
 </g>
</svg>