<svg width="762" height="120" viewBox="0 0 762 120" fill="none" xmlns="http://www.w3.org/2000/svg">
<path d="M618.326 100.159C609.169 100.159 603.258 89.8431 603.258 75.1225C603.258 54.8383 612.762 43.3632 624.122 43.3632C627.135 43.3632 630.149 44.4064 632.699 46.0292V29.4541C632.699 24.354 631.076 23.1949 626.787 24.7018L626.556 23.7745L640.117 18.4426H640.928V89.959C640.928 95.059 642.551 96.2181 646.84 94.8272L647.072 95.7544L633.278 100.043H632.699V90.0749C628.758 95.8704 624.353 100.159 618.326 100.159ZM622.615 93.8999C626.556 93.8999 629.338 91.5817 632.699 88.4521V51.7087C629.917 47.4201 626.672 45.9132 623.774 45.9132C616.819 45.9132 611.603 54.1428 611.603 69.6747C611.603 87.4089 616.008 93.8999 622.615 93.8999Z" fill="#121827"/>
<path d="M669.029 100.159C656.511 100.159 649.325 87.0612 649.325 71.7611C649.325 56.6929 657.207 43.3632 669.261 43.3632C681.895 43.3632 689.082 56.461 689.082 71.7611C689.082 86.7135 681.316 100.159 669.029 100.159ZM669.957 97.609C676.448 97.609 680.157 89.4953 680.157 77.4407C680.157 58.8951 676.448 45.9132 668.566 45.9132C661.959 45.9132 658.25 53.911 658.25 66.0815C658.25 84.6271 661.959 97.609 669.957 97.609Z" fill="#121827"/>
<path d="M710.978 100.159C700.082 100.159 693.36 88.1044 693.36 73.0361C693.36 55.4178 701.821 43.3632 713.064 43.3632C722.569 43.3632 728.017 51.1292 728.017 57.0406C728.017 60.402 726.162 62.3724 723.496 62.3724C720.83 62.3724 719.323 60.2861 719.207 56.3451C719.092 53.911 718.744 51.2451 717.817 49.2746C716.773 47.0723 715.035 45.9132 712.253 45.9132C705.53 45.9132 700.778 54.7224 700.778 68.2838C700.778 83.3521 706.573 91.6976 714.803 91.6976C720.598 91.6976 725.351 87.4089 727.785 78.2521L728.596 78.368C726.857 89.0317 721.062 100.159 710.978 100.159Z" fill="#121827"/>
<path d="M745.868 100.159C741.231 100.159 735.668 98.9999 732.422 98.0726V82.4248H733.233C733.929 94.0158 740.42 97.4931 745.752 97.4931C752.011 97.4931 755.256 93.3203 755.256 87.9885C755.256 82.6566 751.895 79.2953 747.258 76.3975L742.506 73.3839C736.479 69.5588 732.538 64.8065 732.538 58.0838C732.538 49.2746 739.261 43.3632 748.07 43.3632C752.011 43.3632 756.647 44.4064 759.545 45.3337V58.8951H758.734C758.27 48.6951 752.474 46.0292 748.186 46.0292C743.202 46.0292 739.261 49.1587 739.261 54.3747C739.261 58.7792 742.158 62.3724 746.911 65.3861L751.663 68.5157C758.965 73.268 761.979 77.9043 761.979 84.2794C761.979 94.2476 755.488 100.159 745.868 100.159Z" fill="#121827"/>
<path d="M134.951 87.472V31.8963C134.951 24.9363 133.127 22.3114 126.391 22.3114V21.2824H162.792C180.023 21.2824 191.775 26.8752 191.775 41.71C191.775 52.5526 184.472 58.941 173.058 61.1086L193.828 90.8925C196.796 95.1133 199.879 97.2809 202.389 97.2809V98.3099H181.166L156.746 62.0233H150.925V87.472C150.925 94.5464 152.635 97.2857 159.371 97.2857V98.3147H126.391V97.2857C133.122 97.2857 134.951 94.5464 134.951 87.472ZM175.349 41.71C175.349 30.4148 168.961 25.9605 160.286 25.9605H150.929V57.4547H160.286C168.961 57.4547 175.349 52.8909 175.349 41.7052V41.71Z" fill="#121827"/>
<path d="M196.218 72.1845C196.218 55.1821 207.061 43.5391 221.553 43.5391C234.563 43.5391 242.209 53.0098 241.98 66.4773H209.457C210.029 80.9691 218.585 86.6763 227.145 86.6763C232.738 86.6763 238.217 84.0514 241.294 77.2056L242.095 77.4343C239.241 89.6442 231.824 99.4578 219.957 99.4578C205.465 99.4578 196.223 87.4766 196.223 72.1845H196.218ZM227.26 62.4852C227.031 52.0999 224.521 46.9644 219.385 46.9644C214.25 46.9644 210.029 52.2142 209.571 62.4852H227.26Z" fill="#121827"/>
<path d="M245.77 74.5757C245.77 55.5201 257.523 43.5341 272.243 43.5341C275.44 43.5341 277.95 44.1058 280.461 45.2443V32.1198C280.461 27.4416 278.979 25.9553 274.64 27.4416L274.411 26.4126L295.072 19H295.987V88.2671C295.987 92.8309 297.468 94.3173 301.808 93.0596L302.151 94.0886L281.381 99.3384H280.466V87.8146C276.131 94.8889 270.424 99.4528 263.463 99.4528C253.078 99.4528 245.775 89.7535 245.775 74.5757H245.77ZM280.461 86.0995V51.9805C278.065 48.5552 275.097 47.188 272.243 47.188C265.741 47.188 261.629 54.6054 261.629 67.2726C261.629 83.8176 266.079 89.2961 272.129 89.2961C275.097 89.2961 277.836 88.0432 280.461 86.0995Z" fill="#121827"/>
<path d="M306.433 111.096V56.6637C306.433 51.9855 304.951 50.4992 300.612 51.9855L300.269 50.9565L321.039 43.5391H321.84V55.1774C326.289 48.103 331.996 43.5391 339.071 43.5391C349.342 43.5391 356.645 52.3238 356.645 67.5016C356.645 86.5572 345.349 99.453 330.738 99.453C327.656 99.453 324.579 98.767 321.84 97.3998V111.096C321.84 116.803 323.435 118.971 328.685 118.971H329.824V120H300.383V118.971C304.832 118.971 306.433 116.803 306.433 111.096ZM330.172 95.8039C336.674 95.8039 340.786 88.7295 340.786 75.7193C340.786 59.1743 336.222 53.6958 330.172 53.6958C327.204 53.6958 324.579 54.9534 321.84 56.778V91.0114C324.464 94.6653 327.432 95.8039 330.172 95.8039Z" fill="#121827"/>
<path d="M388.965 89.0723C384.973 95.1225 379.38 99.3433 372.42 99.3433C365.46 99.3433 359.639 94.7795 359.639 86.4474C359.639 77.4341 366.37 72.7512 376.412 68.6447L388.965 63.6236V57.3495C388.965 49.5891 386.798 46.9642 382.234 46.9642C379.266 46.9642 377.556 48.3314 376.755 50.5038C375.726 53.1287 375.955 56.0966 375.726 58.4928C375.155 62.5993 372.301 64.9956 368.423 64.9956C364.545 64.9956 361.692 62.3707 361.692 58.2642C361.692 50.8468 370.138 43.5437 384.63 43.5437C397.297 43.5437 404.257 48.3362 404.257 61.2321V86.2235C404.257 88.9628 404.715 90.2157 406.539 90.2157C407.911 90.2157 409.164 89.5297 410.989 88.0481L411.56 88.5054C407.454 95.4655 403.004 99.1194 397.64 99.1194C392.276 99.1194 389.194 96.1515 388.965 89.0771V89.0723ZM381.433 90.3252C383.944 90.3252 386.455 89.2962 388.965 87.3573V67.387C386.683 68.416 384.516 69.4403 382.691 70.4693C377.098 73.5515 374.702 76.5194 374.702 81.8836C374.702 87.8194 377.327 90.33 381.433 90.33V90.3252Z" fill="#121827"/>
<path d="M416.505 89.4155V56.6637C416.505 51.9855 414.909 50.4992 410.569 51.9855L410.341 50.9565L430.997 43.5391H431.912V54.9487C436.361 47.9886 441.611 43.5391 449.371 43.5391C458.728 43.5391 462.953 50.0419 462.953 62.0278V89.4155C462.953 95.1227 464.435 97.2902 469.004 97.2902V98.3192H441.845V97.2902C445.951 97.2902 447.437 95.1227 447.437 89.4155V62.4852C447.437 56.3207 445.155 53.4719 440.592 53.4719C437.395 53.4719 434.77 54.5009 431.917 56.5541V89.4203C431.917 95.1274 433.512 97.295 437.624 97.295V98.324H410.465V97.295C414.914 97.295 416.515 95.1274 416.515 89.4203L416.505 89.4155Z" fill="#121827"/>
<path d="M469.34 74.5757C469.34 55.5201 481.092 43.5341 495.813 43.5341C499.009 43.5341 501.52 44.1058 504.03 45.2443V32.1198C504.03 27.4416 502.549 25.9553 498.209 27.4416L497.98 26.4126L518.637 19H519.547V88.2671C519.547 92.8309 521.033 94.3173 525.368 93.0596L525.711 94.0886L504.94 99.3384H504.03V87.8146C499.695 94.8889 493.988 99.4528 487.028 99.4528C476.643 99.4528 469.34 89.7535 469.34 74.5757ZM504.03 86.0995V51.9805C501.634 48.5552 498.666 47.188 495.813 47.188C489.31 47.188 485.199 54.6054 485.199 67.2726C485.199 83.8176 489.648 89.2961 495.698 89.2961C498.666 89.2961 501.406 88.0432 504.03 86.0995Z" fill="#121827"/>
<path d="M556.356 89.0723C552.36 95.1225 546.771 99.3433 539.807 99.3433C532.842 99.3433 527.03 94.7795 527.03 86.4474C527.03 77.4341 533.761 72.7512 543.804 68.6447L556.356 63.6236V57.3495C556.356 49.5891 554.189 46.9642 549.62 46.9642C546.657 46.9642 544.942 48.3314 544.147 50.5038C543.118 53.1287 543.346 56.0966 543.118 58.4928C542.546 62.5993 539.692 64.9956 535.815 64.9956C531.937 64.9956 529.083 62.3707 529.083 58.2642C529.083 50.8468 537.525 43.5437 552.021 43.5437C564.684 43.5437 571.649 48.3362 571.649 61.2321V86.2235C571.649 88.9628 572.101 90.2157 573.931 90.2157C575.298 90.2157 576.555 89.5297 578.38 88.0481L578.952 88.5054C574.84 95.4655 570.391 99.1194 565.027 99.1194C559.663 99.1194 556.585 96.1515 556.356 89.0771V89.0723ZM548.825 90.3252C551.335 90.3252 553.846 89.2962 556.356 87.3573V67.387C554.075 68.416 551.907 69.4403 550.078 70.4693C544.49 73.5515 542.089 76.5194 542.089 81.8836C542.089 87.8194 544.714 90.33 548.825 90.33V90.3252Z" fill="#121827"/>
<path d="M104.468 27.8389L93.221 21.3455L69.1958 35.216V35.6357L52.2338 25.8427L35.2718 35.6357V35.216L11.2466 21.3455L0 27.8389V63.834V81.3147L52.2338 111.472L104.468 81.3147V63.834V27.8389ZM76.0236 39.1537L93.2244 29.2242L97.6466 31.7765V52.0108L76.027 39.529V39.1571L76.0236 39.1537ZM6.82779 31.7765L11.25 29.2242L28.4508 39.1537V39.5256L6.8312 52.0074V31.7731L6.82779 31.7765ZM65.903 95.6971L52.2372 103.586L38.5714 95.6971V82.6898L52.2372 74.8008L65.903 82.6898V95.6971ZM97.6432 77.3736L83.9296 85.2933V69.3413L52.2372 51.0452L20.5448 69.3413V85.2933L6.82779 77.3736V59.9407L52.2372 33.7249L97.6466 59.9407V77.3736H97.6432Z" fill="#E2401B"/>
</svg>
