<svg width="140" height="20" viewBox="0 0 140 20" fill="none" xmlns="http://www.w3.org/2000/svg">
<g clip-path="url(#clip0_118_12313)">
<g clip-path="url(#clip1_118_12313)">
<path d="M18.0981 4.18475C16.6316 4.18475 15.3999 4.73608 14.4364 5.82272C13.473 6.90936 12.9834 8.34373 12.9834 10.0915C12.9834 11.8393 13.4886 13.1867 14.4856 14.2116C15.4826 15.2365 16.7814 15.7558 18.3485 15.7558C19.4013 15.7558 20.3291 15.543 21.107 15.1221C21.8849 14.7011 22.4237 14.2665 22.7076 13.8318L22.7165 13.8181L21.4758 11.4366L21.4669 11.4206H21.2992L21.2903 11.4344C21.0377 11.8759 20.6308 12.2739 20.0854 12.6171C19.5399 12.9602 18.9565 13.1364 18.3462 13.1364C17.6756 13.1364 17.0988 12.9099 16.6316 12.4638C16.1711 12.0246 15.9342 11.4664 15.9275 10.8075H23.2284L23.2485 9.99084C23.2485 8.28196 22.7545 6.87276 21.7776 5.80213C20.8007 4.72922 19.5623 4.18704 18.0958 4.18704L18.0981 4.18475ZM20.3782 8.77838H15.9744C16.0795 8.29568 16.3142 7.84501 16.6741 7.43324C17.0385 7.01688 17.5437 6.80413 18.1741 6.80413C18.8045 6.80413 19.3231 7.02374 19.7143 7.45382C20.0966 7.87704 20.3201 8.32314 20.3782 8.77609V8.77838Z" fill="#F5F5F5"/>
<path d="M32.0092 5.55966C31.7253 5.14559 31.3207 4.80931 30.8065 4.56224C30.2857 4.31288 29.7335 4.18477 29.1657 4.18477C27.6859 4.18477 26.481 4.74525 25.5801 5.85019C24.6814 6.95514 24.2254 8.35976 24.2254 10.0298C24.2254 11.6998 24.6613 13.0838 25.522 14.1498C26.3848 15.2159 27.583 15.7581 29.0875 15.7581C29.8341 15.7581 30.4913 15.6002 31.0457 15.2914C31.5957 14.9848 32.0226 14.5708 32.3199 14.0629H32.3378L32.6038 15.4996L32.6083 15.5224H34.7588V0.833344H32.0047V5.55966H32.0092ZM31.39 7.7215C31.8661 8.33231 32.1053 9.10783 32.1053 10.0298C32.1053 10.9517 31.8617 11.6929 31.3811 12.2694C30.9004 12.8459 30.2589 13.1364 29.4765 13.1364C28.6941 13.1364 28.0592 12.839 27.63 12.2511C27.1985 11.6609 26.9795 10.9128 26.9795 10.0298C26.9795 9.21077 27.2052 8.46042 27.6479 7.79928C28.0905 7.14044 28.7052 6.80644 29.4742 6.80644C30.2432 6.80644 30.9138 7.11527 31.3878 7.7215H31.39Z" fill="#F5F5F5"/>
<path d="M42.056 4.18524C41.2467 4.18524 40.5538 4.35224 39.9994 4.68166C39.4517 5.0088 39.0471 5.41143 38.8012 5.8804H38.7855L38.6112 4.42087H36.3623V19.1671H39.1164V14.2967H39.1499C39.4204 14.7131 39.8228 15.0654 40.3459 15.3376C40.8734 15.6144 41.4412 15.754 42.0359 15.754C43.4375 15.754 44.5664 15.2141 45.3912 14.1457C46.2139 13.0797 46.6297 11.6956 46.6297 10.0279C46.6297 8.36023 46.2027 6.9556 45.3622 5.85066C44.5194 4.74343 43.4062 4.18295 42.056 4.18295V4.18524ZM43.8779 10.0302C43.8779 10.927 43.6521 11.6773 43.2095 12.2607C42.7668 12.8418 42.1856 13.1369 41.4792 13.1369C40.7728 13.1369 40.1469 12.8578 39.6998 12.3087C39.2505 11.7574 39.0225 10.991 39.0225 10.0302C39.0225 9.0694 39.2438 8.24813 39.6819 7.67164C40.1178 7.09744 40.7236 6.80462 41.4815 6.80462C42.2393 6.80462 42.8026 7.11803 43.2318 7.73798C43.6633 8.36023 43.8823 9.13117 43.8823 10.0279L43.8779 10.0302Z" fill="#F5F5F5"/>
<path d="M55.264 5.30553C54.4414 4.56203 53.3684 4.18457 52.0763 4.18457C51.1486 4.18457 50.2857 4.38588 49.5122 4.78394C48.741 5.18199 48.0972 5.75391 47.5987 6.48138L47.5875 6.4974L48.9355 8.77591L48.9444 8.78964H49.1166L49.1233 8.77362C49.4429 8.13765 49.8699 7.62979 50.3885 7.26148C50.9072 6.89316 51.4683 6.70558 52.0539 6.70558C52.6061 6.70558 53.0308 6.81081 53.3125 7.01441C53.5919 7.21801 53.7328 7.48796 53.7328 7.81738C53.7328 8.1102 53.5629 8.32982 53.2119 8.48995C52.8587 8.65238 52.0539 8.87199 50.8222 9.14651C49.6195 9.40959 48.7455 9.83739 48.2224 10.423C47.6993 11.0087 47.4333 11.759 47.4333 12.6535C47.4333 13.6166 47.7239 14.383 48.2939 14.9297C48.864 15.4765 49.7179 15.7556 50.8289 15.7556C52.311 15.7556 53.3773 15.1859 53.9943 14.0604H54.0144L54.2916 15.5199H56.5047V8.47165C56.5047 7.11507 56.0867 6.0513 55.2618 5.30553H55.264ZM53.0375 12.7084C52.5592 13.0561 51.9779 13.2346 51.3095 13.2346C50.554 13.2346 50.1873 12.96 50.1873 12.3973C50.1873 12.1205 50.2947 11.8848 50.5025 11.7018C50.7149 11.5165 51.1039 11.3564 51.6605 11.226C52.8945 10.9423 53.5785 10.6495 53.7529 10.3361V11.4731C53.7529 11.9466 53.5114 12.3607 53.0375 12.7084Z" fill="#F5F5F5"/>
<path d="M63.6434 4.18454C62.975 4.18454 62.3536 4.33553 61.7992 4.63063C61.2493 4.92574 60.8022 5.34439 60.4669 5.8797H60.449L60.2746 4.42017H58.0258V15.5176H60.7798V9.91056C60.7798 9.00007 60.9944 8.24743 61.4192 7.67094C61.8417 7.09674 62.4475 6.80392 63.2187 6.80392C64.4146 6.80392 65.0205 7.52453 65.0205 8.94517V15.5199H67.7745V8.05756C67.7745 6.93889 67.4146 6.00323 66.706 5.27804C65.9973 4.55285 64.9668 4.18454 63.6412 4.18454H63.6434Z" fill="#F5F5F5"/>
<path d="M76.5663 5.55966C76.2824 5.14559 75.8778 4.80931 75.3637 4.56224C74.8428 4.31288 74.2907 4.18477 73.7229 4.18477C72.243 4.18477 71.0381 4.74525 70.1372 5.85019C69.2386 6.95514 68.7825 8.35976 68.7825 10.0298C68.7825 11.6998 69.2184 13.0838 70.0791 14.1498C70.942 15.2159 72.1402 15.7581 73.6446 15.7581C74.3913 15.7581 75.0485 15.6002 75.6029 15.2914C76.1506 14.9848 76.5798 14.5708 76.8771 14.0629H76.895L77.161 15.4996L77.1654 15.5224H79.3159V0.833344H76.5619V5.55966H76.5663ZM75.9471 7.7215C76.4233 8.33231 76.6625 9.10783 76.6625 10.0298C76.6625 10.9517 76.4188 11.6929 75.9359 12.2694C75.4553 12.8459 74.8138 13.1364 74.0314 13.1364C73.2489 13.1364 72.6141 12.839 72.1849 12.2511C71.7534 11.6609 71.5344 10.9128 71.5344 10.0298C71.5344 9.21077 71.7601 8.46042 72.2028 7.79928C72.6454 7.14044 73.2601 6.80644 74.0291 6.80644C74.7981 6.80644 75.4687 7.11527 75.9427 7.7215H75.9471Z" fill="#F5F5F5"/>
<path d="M88.3575 5.30553C87.5349 4.56203 86.4618 4.18457 85.1698 4.18457C84.2421 4.18457 83.3792 4.38588 82.6057 4.78394C81.8345 5.18199 81.1907 5.75391 80.6922 6.48138L80.681 6.4974L82.029 8.77591L82.0379 8.78964H82.21L82.2167 8.77362C82.5364 8.13994 82.9634 7.62979 83.482 7.26148C84.0006 6.89316 84.5617 6.70558 85.1496 6.70558C85.7018 6.70558 86.1265 6.81081 86.4082 7.01441C86.6876 7.21801 86.8285 7.48796 86.8285 7.81738C86.8285 8.1102 86.6586 8.32982 86.3076 8.48995C85.9544 8.65238 85.1496 8.87199 83.9179 9.14651C82.7153 9.40959 81.8412 9.83739 81.3181 10.423C80.795 11.0087 80.529 11.759 80.529 12.6535C80.529 13.6166 80.8196 14.383 81.3896 14.9297C81.9597 15.4765 82.8136 15.7556 83.9246 15.7556C85.4067 15.7556 86.473 15.1859 87.09 14.0604H87.1101L87.3873 15.5199H89.6004V8.47165C89.6004 7.11507 89.1824 6.0513 88.3575 5.30553ZM86.131 12.7084C85.6526 13.0561 85.0714 13.2346 84.403 13.2346C83.6474 13.2346 83.2808 12.96 83.2808 12.3973C83.2808 12.1182 83.3881 11.8848 83.596 11.7018C83.8084 11.5165 84.1973 11.3564 84.754 11.226C85.9879 10.9423 86.672 10.6495 86.8463 10.3361V11.4731C86.8463 11.9466 86.6049 12.3607 86.1288 12.7084H86.131Z" fill="#F5F5F5"/>
<path d="M9.96731 11.1503C9.72589 10.7019 9.54035 10.2856 9.40398 9.95615C10.0321 9.70908 10.5619 9.25613 11.0448 8.77114C11.7668 8.04595 12.1267 7.02337 12.1267 5.69881C12.1267 4.16608 11.6372 2.97421 10.6558 2.12548C9.67671 1.27676 8.49863 0.851257 7.12384 0.851257H0.833313V15.4831H3.8981V10.2375H5.06276L5.77363 10.2192C6.03965 10.8758 6.62757 12.3193 6.96959 13.0857L9.96955 11.1526L9.96731 11.1503ZM3.8981 3.77718H6.71699C8.13202 3.77718 8.84065 4.36282 8.84065 5.53181C8.84065 6.78545 8.05154 7.41227 6.47109 7.41227H3.8981V3.77718Z" fill="#F5F5F5"/>
<path d="M13.1325 14.4385L12.33 13.8575L9.01038 16.0582L10.1728 16.5203L12.1981 16.5157L13.6668 15.4451L13.1325 14.4385Z" fill="#F5F5F5"/>
<path d="M10.4772 11.9938L7.39905 13.9772L8.26416 15.3636L11.5391 13.2521L10.4772 11.9938Z" fill="#F5F5F5"/>
</g>
<path d="M102.646 15.6948C101.716 15.6948 100.896 15.4624 100.185 14.9976C99.4807 14.5259 98.927 13.8696 98.5237 13.0288C98.1272 12.1812 97.929 11.2002 97.929 10.0859C97.929 8.97168 98.1272 7.99414 98.5237 7.15332C98.927 6.3125 99.4841 5.65625 100.195 5.18457C100.906 4.71289 101.723 4.47705 102.646 4.47705C103.459 4.47705 104.194 4.67871 104.85 5.08203C105.513 5.47852 105.995 6.02197 106.296 6.7124H106.306V0.22168H107.629V15.5H106.337V13.4492H106.317C105.982 14.1533 105.49 14.7036 104.84 15.1001C104.191 15.4966 103.459 15.6948 102.646 15.6948ZM102.82 14.4849C103.907 14.4849 104.775 14.0884 105.425 13.2954C106.081 12.4956 106.409 11.4258 106.409 10.0859C106.409 8.74609 106.081 7.67627 105.425 6.87646C104.775 6.07666 103.907 5.67676 102.82 5.67676C101.795 5.67676 100.944 6.05957 100.267 6.8252C99.5969 7.59082 99.262 8.67773 99.262 10.0859C99.262 11.4941 99.5969 12.5811 100.267 13.3467C100.944 14.1055 101.795 14.4849 102.82 14.4849ZM114.591 15.7153C113.614 15.7153 112.752 15.4761 112.007 14.9976C111.269 14.519 110.691 13.856 110.274 13.0083C109.864 12.1606 109.659 11.1899 109.659 10.0962C109.659 9.00244 109.864 8.03174 110.274 7.18408C110.691 6.32959 111.269 5.66309 112.007 5.18457C112.752 4.69922 113.614 4.45654 114.591 4.45654C115.569 4.45654 116.427 4.69922 117.165 5.18457C117.91 5.66309 118.488 6.32959 118.898 7.18408C119.315 8.03174 119.523 9.00244 119.523 10.0962C119.523 11.1899 119.315 12.1606 118.898 13.0083C118.488 13.856 117.91 14.519 117.165 14.9976C116.427 15.4761 115.569 15.7153 114.591 15.7153ZM114.591 14.5054C115.692 14.5054 116.567 14.1021 117.216 13.2954C117.865 12.4819 118.19 11.4155 118.19 10.0962C118.19 8.77686 117.865 7.71045 117.216 6.89697C116.567 6.07666 115.692 5.6665 114.591 5.6665C113.497 5.6665 112.622 6.07324 111.966 6.88672C111.317 7.7002 110.992 8.77002 110.992 10.0962C110.992 11.4155 111.317 12.4819 111.966 13.2954C112.615 14.1021 113.49 14.5054 114.591 14.5054ZM125.87 15.7153C124.892 15.7153 124.031 15.4761 123.286 14.9976C122.548 14.519 121.97 13.856 121.553 13.0083C121.143 12.1606 120.938 11.1899 120.938 10.0962C120.938 9.00244 121.143 8.03174 121.553 7.18408C121.97 6.32959 122.548 5.66309 123.286 5.18457C124.031 4.69922 124.892 4.45654 125.87 4.45654C126.663 4.45654 127.377 4.61719 128.013 4.93848C128.649 5.25293 129.168 5.69385 129.572 6.26123C129.982 6.82178 130.245 7.46777 130.361 8.19922H129.018C128.867 7.44727 128.519 6.83887 127.972 6.37402C127.432 5.90234 126.731 5.6665 125.87 5.6665C124.776 5.6665 123.901 6.07324 123.245 6.88672C122.595 7.7002 122.271 8.77002 122.271 10.0962C122.271 11.4155 122.595 12.4819 123.245 13.2954C123.894 14.1021 124.769 14.5054 125.87 14.5054C126.738 14.5054 127.432 14.2764 127.951 13.8184C128.471 13.3535 128.82 12.7383 128.997 11.9727H130.361C130.245 12.6904 129.982 13.333 129.572 13.9004C129.161 14.4609 128.638 14.9053 128.003 15.2334C127.374 15.5547 126.663 15.7153 125.87 15.7153ZM135.959 15.7153C134.79 15.7153 133.82 15.4214 133.047 14.8335C132.275 14.2456 131.858 13.3877 131.796 12.2598H133.109C133.163 12.9844 133.43 13.5483 133.908 13.9517C134.394 14.355 135.067 14.5566 135.928 14.5566C136.776 14.5566 137.446 14.3721 137.938 14.0029C138.43 13.627 138.677 13.145 138.677 12.5571C138.677 12.0854 138.509 11.7231 138.174 11.4702C137.839 11.2173 137.381 11.0259 136.8 10.896L135.016 10.4756C134.038 10.2432 133.297 9.89111 132.791 9.41943C132.285 8.94775 132.032 8.3291 132.032 7.56348C132.032 6.64746 132.387 5.90234 133.098 5.32812C133.816 4.74707 134.746 4.45654 135.887 4.45654C137.002 4.45654 137.918 4.76416 138.635 5.37939C139.353 5.99463 139.736 6.83887 139.784 7.91211H138.492C138.458 7.20801 138.212 6.65088 137.754 6.24072C137.296 5.82373 136.674 5.61523 135.887 5.61523C135.115 5.61523 134.5 5.7998 134.042 6.16895C133.584 6.53809 133.355 7.00293 133.355 7.56348C133.355 8.03516 133.522 8.40771 133.857 8.68115C134.199 8.94775 134.677 9.15283 135.293 9.29639L137.087 9.7168C138.065 9.94922 138.793 10.2876 139.271 10.7319C139.757 11.1763 139.999 11.7778 139.999 12.5366C139.999 13.5142 139.62 14.29 138.861 14.8643C138.102 15.4316 137.135 15.7153 135.959 15.7153Z" fill="#F5F5F5"/>
</g>
<defs>
<clipPath id="clip0_118_12313">
<rect width="140" height="20" fill="white"/>
</clipPath>
<clipPath id="clip1_118_12313">
<rect width="90" height="20" fill="white"/>
</clipPath>
</defs>
</svg>
